<svg xmlns="http://www.w3.org/2000/svg" xmlns:xlink="http://www.w3.org/1999/xlink" width="60" zoomAndPan="magnify" viewBox="0 0 45 44.999999" height="60" preserveAspectRatio="xMidYMid meet" version="1.0"><defs><clipPath id="b68f2ad017"><path d="M 35 9.71875 L 42.695312 9.71875 L 42.695312 17 L 35 17 Z M 35 9.71875 " clip-rule="nonzero"/></clipPath><clipPath id="8691ee6c9e"><path d="M 35 16 L 42.695312 16 L 42.695312 23 L 35 23 Z M 35 16 " clip-rule="nonzero"/></clipPath><clipPath id="b3fe9529dd"><path d="M 16 9.71875 L 25 9.71875 L 25 17 L 16 17 Z M 16 9.71875 " clip-rule="nonzero"/></clipPath><clipPath id="6bc1a9bef6"><path d="M 13 9.71875 L 21 9.71875 L 21 17 L 13 17 Z M 13 9.71875 " clip-rule="nonzero"/></clipPath><clipPath id="afb6ff3032"><path d="M 20 9.71875 L 28 9.71875 L 28 17 L 20 17 Z M 20 9.71875 " clip-rule="nonzero"/></clipPath><clipPath id="9d1eab07d9"><path d="M 5 9.71875 L 14 9.71875 L 14 17 L 5 17 Z M 5 9.71875 " clip-rule="nonzero"/></clipPath><clipPath id="783731507e"><path d="M 2.195312 9.71875 L 10 9.71875 L 10 17 L 2.195312 17 Z M 2.195312 9.71875 " clip-rule="nonzero"/></clipPath><clipPath id="18c1e215b9"><path d="M 27 9.71875 L 36 9.71875 L 36 17 L 27 17 Z M 27 9.71875 " clip-rule="nonzero"/></clipPath><clipPath id="3eebf58733"><path d="M 31 9.71875 L 39 9.71875 L 39 17 L 31 17 Z M 31 9.71875 " clip-rule="nonzero"/></clipPath><clipPath id="9e0c122eb3"><path d="M 16 28 L 25 28 L 25 35.21875 L 16 35.21875 Z M 16 28 " clip-rule="nonzero"/></clipPath><clipPath id="352e3dfecd"><path d="M 13 28 L 21 28 L 21 35.21875 L 13 35.21875 Z M 13 28 " clip-rule="nonzero"/></clipPath><clipPath id="dec6760452"><path d="M 5 28 L 14 28 L 14 35.21875 L 5 35.21875 Z M 5 28 " clip-rule="nonzero"/></clipPath><clipPath id="edea16ee05"><path d="M 2.195312 28 L 10 28 L 10 35.21875 L 2.195312 35.21875 Z M 2.195312 28 " clip-rule="nonzero"/></clipPath></defs><path fill="#1f4d93" d="M 9.632812 22.417969 L 13.296875 28.765625 L 5.964844 28.765625 Z M 9.632812 22.417969 " fill-opacity="1" fill-rule="nonzero"/><path fill="#183b6f" d="M 9.632812 22.417969 L 5.964844 16.070312 L 13.296875 16.070312 Z M 9.632812 22.417969 " fill-opacity="1" fill-rule="nonzero"/><path fill="#22549f" d="M 9.628906 22.417969 L 16.960938 22.417969 L 13.296875 28.765625 Z M 9.628906 22.417969 " fill-opacity="1" fill-rule="nonzero"/><path fill="#245aab" d="M 9.628906 22.417969 L 13.296875 16.070312 L 16.960938 22.417969 Z M 9.628906 22.417969 " fill-opacity="1" fill-rule="nonzero"/><path fill="#173a6e" d="M 31.617188 22.417969 L 27.953125 16.070312 L 35.285156 16.070312 Z M 31.617188 22.417969 " fill-opacity="1" fill-rule="nonzero"/><path fill="#1d4786" d="M 31.621094 22.417969 L 24.289062 22.417969 L 27.953125 16.070312 Z M 31.621094 22.417969 " fill-opacity="1" fill-rule="nonzero"/><path fill="#22549f" d="M 31.621094 22.417969 L 27.957031 28.765625 L 24.292969 22.417969 Z M 31.621094 22.417969 " fill-opacity="1" fill-rule="nonzero"/><g clip-path="url(#b68f2ad017)"><path fill="#2f74dc" d="M 42.613281 16.070312 L 35.28125 16.070312 L 38.949219 9.71875 Z M 42.613281 16.070312 " fill-opacity="1" fill-rule="nonzero"/></g><g clip-path="url(#8691ee6c9e)"><path fill="#2761b7" d="M 42.613281 16.070312 L 38.949219 22.417969 L 35.28125 16.070312 Z M 42.613281 16.070312 " fill-opacity="1" fill-rule="nonzero"/></g><g clip-path="url(#b3fe9529dd)"><path fill="#317ae8" d="M 20.625 16.070312 L 16.960938 9.71875 L 24.289062 9.71875 Z M 20.625 16.070312 " fill-opacity="1" fill-rule="nonzero"/></g><path fill="#173a6e" d="M 20.625 16.070312 L 27.953125 16.070312 L 24.289062 22.417969 Z M 20.625 16.070312 " fill-opacity="1" fill-rule="nonzero"/><g clip-path="url(#6bc1a9bef6)"><path fill="#2f74dc" d="M 20.625 16.070312 L 13.296875 16.070312 L 16.960938 9.71875 Z M 20.625 16.070312 " fill-opacity="1" fill-rule="nonzero"/></g><g clip-path="url(#afb6ff3032)"><path fill="#132c51" d="M 20.625 16.070312 L 24.289062 9.71875 L 27.953125 16.070312 Z M 20.625 16.070312 " fill-opacity="1" fill-rule="nonzero"/></g><path fill="#2761b7" d="M 20.625 16.070312 L 16.960938 22.417969 L 13.296875 16.070312 Z M 20.625 16.070312 " fill-opacity="1" fill-rule="nonzero"/><g clip-path="url(#9d1eab07d9)"><path fill="#1a407a" d="M 9.632812 9.71875 L 13.296875 16.070312 L 5.964844 16.070312 Z M 9.632812 9.71875 " fill-opacity="1" fill-rule="nonzero"/></g><g clip-path="url(#783731507e)"><path fill="#1f4d93" d="M 9.632812 9.71875 L 5.96875 16.070312 L 2.300781 9.71875 Z M 9.632812 9.71875 " fill-opacity="1" fill-rule="nonzero"/></g><g clip-path="url(#18c1e215b9)"><path fill="#132c51" d="M 31.617188 9.71875 L 35.285156 16.070312 L 27.953125 16.070312 Z M 31.617188 9.71875 " fill-opacity="1" fill-rule="nonzero"/></g><g clip-path="url(#3eebf58733)"><path fill="#317ae8" d="M 31.617188 9.71875 L 38.949219 9.71875 L 35.285156 16.070312 Z M 31.617188 9.71875 " fill-opacity="1" fill-rule="nonzero"/></g><g clip-path="url(#9e0c122eb3)"><path fill="#1d4786" d="M 20.625 28.765625 L 24.289062 35.117188 L 16.960938 35.117188 Z M 20.625 28.765625 " fill-opacity="1" fill-rule="nonzero"/></g><path fill="#15335f" d="M 20.625 28.765625 L 13.296875 28.765625 L 16.960938 22.417969 Z M 20.625 28.765625 " fill-opacity="1" fill-rule="nonzero"/><g clip-path="url(#352e3dfecd)"><path fill="#173a6e" d="M 20.625 28.765625 L 16.960938 35.117188 L 13.296875 28.765625 Z M 20.625 28.765625 " fill-opacity="1" fill-rule="nonzero"/></g><g clip-path="url(#dec6760452)"><path fill="#1d4786" d="M 9.632812 35.117188 L 5.964844 28.765625 L 13.296875 28.765625 Z M 9.632812 35.117188 " fill-opacity="1" fill-rule="nonzero"/></g><g clip-path="url(#edea16ee05)"><path fill="#1a407a" d="M 9.632812 35.117188 L 2.300781 35.117188 L 5.96875 28.765625 Z M 9.632812 35.117188 " fill-opacity="1" fill-rule="nonzero"/></g></svg>